<svg xmlns:svg="http://www.w3.org/2000/svg" xmlns="http://www.w3.org/2000/svg" xmlns:xlink="http://www.w3.org/1999/xlink" version="1.0" width="348.39078" height="175.85721" id="svg2">
  <defs id="defs5">
    <linearGradient id="linearGradient3212">
      <stop id="stop3214" style="stop-color:#c83a37;stop-opacity:1" offset="0"/>
      <stop id="stop3220" style="stop-color:#fa3436;stop-opacity:1" offset="0.49541286"/>
      <stop id="stop3216" style="stop-color:#c83a37;stop-opacity:1" offset="1"/>
    </linearGradient>
    <linearGradient x1="54.633545" y1="97.358665" x2="182.19685" y2="97.358665" id="linearGradient3270" xlink:href="#linearGradient3212" gradientUnits="userSpaceOnUse"/>
    <linearGradient x1="54.633545" y1="97.358665" x2="182.19685" y2="97.358665" id="linearGradient3277" xlink:href="#linearGradient3212" gradientUnits="userSpaceOnUse"/>
  </defs>
  <g transform="translate(-27.093795,-9.970123)" id="g3272">
    <path d="M 148,185.2663 C 108.52183,183.84692 73.695334,178.20202 56,170.35434 C 46.134029,165.9789 43.484321,164.38139 38.427961,159.76017 C 30.156679,152.20068 27.711865,147.37049 27.207539,137.59211 C 26.876069,131.16524 27.220943,128.27925 28.883428,123.56784 C 36.227411,102.75534 59.652011,82.429787 93,67.93381 C 129.03304,52.270672 162.04504,45.577593 190.75941,48.113397 C 210.57302,49.863163 225.9084,54.510089 228.1572,59.445679 C 229.80399,63.059983 228.52759,63.708694 225.80128,60.643039 C 224.20466,58.847681 220.86412,57.303838 214.89174,55.601148 C 178.95912,45.356977 130.85132,52.767729 85.698172,75.502732 C 50.751069,93.098904 30.100887,115.94123 30.021092,137.09028 C 29.993502,144.40268 34.44969,153.60882 40.325516,158.37843 C 52.162021,167.98654 74.067746,174.82242 106.5,179.02879 C 117.50174,180.45568 171.79221,182.95062 192.5,182.98095 C 220.16971,183.02148 257.43197,179.61274 280.10612,174.96676 C 319.69396,166.85514 348.14623,151.0589 362.72179,129.09989 C 374.62968,111.1599 374.94052,89.708556 363.51297,74.5 C 344.72328,49.493402 289.6213,24.538844 235.31971,16.443896 C 197.21152,10.762961 146.41333,14.510041 105,26.056806 C 100.875,27.206929 95.925,28.509497 94,28.951402 C 87.251827,30.500522 80.481589,32.274143 78.5,33.011987 C 77.4,33.421572 74.25,34.194676 71.5,34.729997 C 68.75,35.265317 65.6,36.037512 64.5,36.445985 C 62.901952,37.039404 62.801464,36.971942 64,36.110316 C 65.280142,35.190023 78.063101,30.828101 95,25.532201 C 100.26797,23.88499 114.75659,20.20118 120.5,19.048685 C 122.7,18.607225 129,17.327836 134.5,16.205598 C 196.49648,3.5556369 257.10894,10.184143 313.73767,35.806817 C 336.33255,46.030271 347.79339,53.396039 360.30605,65.73585 C 372.07426,77.341494 377.11596,91.080564 375.02269,105.84002 C 373.1007,119.39179 367.89888,129.6225 356.99259,141.30086 C 342.2939,157.04007 320.21213,168.24788 289,175.81115 C 257.1099,183.53871 229.74925,186.18905 186,185.78844 C 168.675,185.6298 151.575,185.39484 148,185.2663 z" id="path3174" style="fill:#c93441;fill-opacity:1"/>
  </g>
</svg>